<svg width="15" height="15" viewBox="0 0 15 15" fill="none" xmlns="http://www.w3.org/2000/svg">
<path d="M6.38346 7.50001L0.231173 1.34772C-0.0771179 1.0394 -0.0771179 0.539532 0.231173 0.23124C0.539494 -0.0770801 1.03939 -0.0770801 1.34768 0.23124L7.5 6.38353L13.6523 0.23124C13.9606 -0.0770801 14.4605 -0.0770801 14.7688 0.23124C15.0771 0.539561 15.0771 1.03942 14.7688 1.34772L8.61647 7.50001L14.7688 13.6523C15.0771 13.9606 15.0771 14.4605 14.7688 14.7688C14.4604 15.0771 13.9606 15.0771 13.6523 14.7688L7.5 8.61648L1.34774 14.7688C1.03942 15.0771 0.539523 15.0771 0.231232 14.7688C-0.0770588 14.4604 -0.0770588 13.9606 0.231232 13.6523L6.38346 7.50001Z" fill="#474747"/>
</svg>
